<svg xmlns="http://www.w3.org/2000/svg" xmlns:xlink="http://www.w3.org/1999/xlink" version="1.1" x="0px" y="0px" viewBox="0 0 64 80" style="enable-background:new 0 0 64 64;" xml:space="preserve"><path fill="#fff" d="M17,10h2c0-0.562,0.217-0.803,0.707-1.293C20.253,8.162,21,7.414,21,6s-0.747-2.162-1.293-2.707C19.217,2.803,19,2.562,19,2  h-2c0,1.414,0.747,2.162,1.293,2.707C18.783,5.197,19,5.438,19,6s-0.217,0.803-0.707,1.293C17.747,7.838,17,8.586,17,10z"/><path fill="#fff" d="M23,10h2c0-0.562,0.217-0.803,0.707-1.293C26.253,8.162,27,7.414,27,6s-0.747-2.162-1.293-2.707C25.217,2.803,25,2.562,25,2  h-2c0,1.414,0.747,2.162,1.293,2.707C24.783,5.197,25,5.438,25,6s-0.217,0.803-0.707,1.293C23.747,7.838,23,8.586,23,10z"/><path fill="#fff" d="M29,10h2c0-0.562,0.217-0.803,0.707-1.293C32.253,8.162,33,7.414,33,6s-0.747-2.162-1.293-2.707C31.217,2.803,31,2.562,31,2  h-2c0,1.414,0.747,2.162,1.293,2.707C30.783,5.197,31,5.438,31,6s-0.217,0.803-0.707,1.293C29.747,7.838,29,8.586,29,10z"/><path fill="#fff" d="M61,52h-2c-1.302,0-2.402,0.839-2.816,2H31v-2h-0.026c0.279-0.369,0.51-0.771,0.68-1.209l7.793-3.897  C39.786,46.725,40,46.379,40,46v-5h10.5c1.93,0,3.5-1.57,3.5-3.5S52.43,34,50.5,34H34v-2h3c2.757,0,5-2.243,5-5v-8  c0-2.757-2.243-5-5-5h-3v-1c0-0.552-0.447-1-1-1H15c-0.553,0-1,0.448-1,1v21H5.5C3.57,34,2,35.57,2,37.5S3.57,41,5.5,41H14v5  c0,0.379,0.214,0.725,0.553,0.895l7.793,3.897c0.338,0.876,0.917,1.625,1.654,2.183V55c0,2.757,2.243,5,5,5h27.184  c0.414,1.161,1.514,2,2.816,2h2c0.553,0,1-0.448,1-1v-8C62,52.448,61.553,52,61,52z M24.133,49.834  c-0.002-0.007-0.001-0.015-0.003-0.022c-0.039-0.138-0.065-0.261-0.086-0.381C24.023,49.29,24,49.148,24,49  c0-0.187,0.022-0.369,0.055-0.547c0.009-0.05,0.022-0.099,0.034-0.148c0.032-0.133,0.072-0.262,0.121-0.388  c0.017-0.044,0.033-0.089,0.053-0.133c0.068-0.152,0.146-0.299,0.237-0.437c0.006-0.009,0.01-0.019,0.016-0.027  c0.096-0.141,0.207-0.27,0.324-0.393c0.05-0.051,0.105-0.098,0.159-0.146c0.067-0.061,0.137-0.119,0.21-0.173  c0.078-0.058,0.159-0.114,0.244-0.165c0.048-0.029,0.098-0.054,0.147-0.08c0.104-0.055,0.208-0.109,0.32-0.152  c0.002-0.001,0.004-0.002,0.006-0.003C26.26,46.078,26.62,46,27,46c0.38,0,0.74,0.078,1.075,0.208  c0.002,0.001,0.004,0.002,0.006,0.003c0.112,0.043,0.216,0.098,0.32,0.152c0.049,0.026,0.099,0.051,0.146,0.08  c0.085,0.051,0.165,0.107,0.244,0.165c0.073,0.055,0.142,0.112,0.21,0.173c0.054,0.048,0.109,0.095,0.159,0.146  c0.118,0.123,0.229,0.252,0.324,0.393c0.006,0.009,0.01,0.019,0.016,0.027c0.091,0.138,0.169,0.284,0.237,0.437  c0.019,0.044,0.036,0.089,0.053,0.134c0.049,0.125,0.089,0.254,0.12,0.387c0.012,0.049,0.025,0.098,0.034,0.148  C29.978,48.631,30,48.813,30,49c0,0.148-0.023,0.29-0.044,0.432c-0.021,0.119-0.047,0.243-0.086,0.381  c-0.002,0.007-0.001,0.015-0.003,0.022C29.503,51.081,28.363,52,27,52C25.637,52,24.497,51.081,24.133,49.834z M22,41h10v1.382  l-3.652,1.826C27.916,44.086,27.47,44,27,44s-0.916,0.086-1.348,0.208L22,42.382V41z M38,45.382L31.965,48.4  c-0.01-0.081-0.036-0.158-0.05-0.238c-0.02-0.116-0.044-0.23-0.072-0.344c-0.049-0.201-0.11-0.395-0.182-0.586  c-0.036-0.095-0.071-0.19-0.113-0.283c-0.091-0.203-0.199-0.395-0.317-0.583c-0.045-0.072-0.085-0.146-0.133-0.216  c-0.133-0.191-0.285-0.368-0.445-0.539c-0.053-0.057-0.098-0.119-0.154-0.173c-0.016-0.015-0.028-0.034-0.044-0.049l2.99-1.495  C33.786,43.725,34,43.379,34,43v-2h4V45.382z M34,20h2v6h-2V20z M37,16c1.654,0,3,1.346,3,3v8c0,1.654-1.346,3-3,3h-3v-2h3  c0.553,0,1-0.448,1-1v-8c0-0.552-0.447-1-1-1h-3v-2H37z M16,14h16v1v4v8v4v3H16V14z M4,37.5C4,36.673,4.673,36,5.5,36H15h18h17.5  c0.827,0,1.5,0.673,1.5,1.5S51.327,39,50.5,39H39h-6H21h-6H5.5C4.673,39,4,38.327,4,37.5z M16,41h4v2  c0,0.379,0.214,0.725,0.553,0.895l2.99,1.495c-0.016,0.015-0.028,0.034-0.044,0.049c-0.055,0.054-0.101,0.116-0.154,0.173  c-0.16,0.171-0.311,0.347-0.445,0.539c-0.048,0.069-0.088,0.144-0.133,0.216c-0.117,0.188-0.225,0.38-0.317,0.583  c-0.042,0.093-0.076,0.188-0.113,0.283c-0.072,0.191-0.134,0.386-0.182,0.586c-0.028,0.114-0.052,0.227-0.072,0.344  c-0.014,0.08-0.04,0.157-0.05,0.238L16,45.382V41z M26,55v-1.101C26.323,53.965,26.658,54,27,54c0.712,0,1.386-0.154,2-0.424V55  c0,0.552,0.447,1,1,1h26v2H29C27.346,58,26,56.654,26,55z M60,60h-1c-0.552,0-1-0.449-1-1v-4c0-0.551,0.448-1,1-1h1V60z"/><rect fill="#fff" x="18" y="16" width="2" height="2"/><rect fill="#fff" x="18" y="20" width="2" height="2"/><rect fill="#fff" x="18" y="24" width="2" height="2"/></svg>
